<?xml version="1.0" encoding="utf-8"?>
<!-- Generator: Adobe Illustrator 27.9.0, SVG Export Plug-In . SVG Version: 6.00 Build 0)  -->
<svg version="1.1" id="Layer_1" xmlns="http://www.w3.org/2000/svg" xmlns:xlink="http://www.w3.org/1999/xlink" x="0px" y="0px"
	 viewBox="0 0 24.64 29.58" style="enable-background:new 0 0 24.64 29.58;" xml:space="preserve">
<style type="text/css">
	.st0{fill:#FFFFFF;}
</style>
<g>
	<g>
		<g>
			<path class="st0" d="M24.64,29.58h-1c0-6.24-5.08-11.32-11.32-11.32C6.08,18.25,1,23.33,1,29.58H0c0-6.79,5.53-12.32,12.32-12.32
				S24.64,22.78,24.64,29.58z"/>
		</g>
	</g>
	<g>
		<path class="st0" d="M12.32,15.41c-4.25,0-7.71-3.46-7.71-7.71S8.07,0,12.32,0s7.71,3.46,7.71,7.71S16.57,15.41,12.32,15.41z
			 M12.32,1c-3.7,0-6.71,3.01-6.71,6.71s3.01,6.71,6.71,6.71c3.7,0,6.71-3.01,6.71-6.71S16.02,1,12.32,1z"/>
	</g>
</g>
</svg>
