<?xml version="1.0" encoding="utf-8"?>
<!-- Generator: Adobe Illustrator 27.9.0, SVG Export Plug-In . SVG Version: 6.00 Build 0)  -->
<svg version="1.1" id="Layer_1" xmlns="http://www.w3.org/2000/svg" xmlns:xlink="http://www.w3.org/1999/xlink" x="0px" y="0px"
	 viewBox="0 0 150 40.52" style="enable-background:new 0 0 150 40.52;" xml:space="preserve">
<style type="text/css">
	.st0{fill:#FFFFFF;}
	.st1{fill:url(#SVGID_1_);}
</style>
<g>
	<g>
		<g>
			<path class="st0" d="M84.55,24.08h-2.27l-1.8,6.71h-5.29l4.77-17.79h5.29l-1.75,6.54h2.42l2.65-3.69c0.3-0.42,0.63-0.83,1-1.21
				c0.37-0.38,0.78-0.72,1.22-1.01c0.44-0.29,0.91-0.52,1.41-0.7c0.5-0.18,1.03-0.27,1.6-0.27c0.3,0,0.6,0.02,0.88,0.05
				c0.28,0.03,0.53,0.07,0.74,0.12l0.71,0.17l-1.22,4.53h-1.06c-0.38,0-0.73,0.11-1.04,0.32c-0.31,0.21-0.56,0.44-0.74,0.69
				l-2.41,3.36l2.15,8.9h-5.75L84.55,24.08z"/>
		</g>
		<g>
			<path class="st0" d="M111.02,25.76c-0.45,1.68-1.23,2.99-2.34,3.94c-1.11,0.95-2.42,1.43-3.94,1.43h-6.96
				c-1.51,0-2.57-0.48-3.17-1.43c-0.6-0.95-0.68-2.27-0.23-3.94l2.07-7.72c0.45-1.68,1.23-2.99,2.34-3.94
				c1.11-0.95,2.42-1.43,3.93-1.43h6.96c1.51,0,2.57,0.48,3.17,1.43c0.6,0.95,0.68,2.27,0.23,3.94L111.02,25.76z M107.66,18.54
				c0.24-0.89-0.04-1.34-0.85-1.34h-3.63c-0.81,0-1.33,0.45-1.57,1.34l-1.8,6.71c-0.24,0.89,0.04,1.34,0.85,1.34h3.63
				c0.8,0,1.33-0.45,1.57-1.34L107.66,18.54z"/>
		</g>
		<g>
			<path class="st0" d="M124.45,27.77h-3.93l-1.41-6.04l-2.43,9.06h-5.29l4.77-17.79h5.6l2.17,9.4l7.21-9.4h5.6l-4.77,17.79h-5.29
				l2.43-9.06L124.45,27.77z"/>
		</g>
	</g>
	<linearGradient id="SVGID_1_" gradientUnits="userSpaceOnUse" x1="-23.7774" y1="-11.7633" x2="181.7525" y2="37.5802">
		<stop  offset="0" style="stop-color:#D4D32D"/>
		<stop  offset="0.1089" style="stop-color:#CDD033"/>
		<stop  offset="0.2803" style="stop-color:#BBC842"/>
		<stop  offset="0.4381" style="stop-color:#A6BE4F"/>
		<stop  offset="0.679" style="stop-color:#9FBB50"/>
		<stop  offset="0.9768" style="stop-color:#91B451"/>
		<stop  offset="0.9854" style="stop-color:#8DB24D"/>
		<stop  offset="0.9989" style="stop-color:#80AA42"/>
		<stop  offset="1" style="stop-color:#7EA941"/>
	</linearGradient>
	<path class="st1" d="M73.61,38.88l1.06-3.96h0.65l-1.06,3.96H73.61z M75.6,33.24c0.13,0,0.17,0.08,0.13,0.21l-0.12,0.46
		c-0.04,0.15-0.12,0.21-0.25,0.21h-0.3c-0.14,0-0.18-0.07-0.14-0.21l0.12-0.46c0.03-0.13,0.12-0.21,0.25-0.21H75.6z M78.55,38.88
		h-0.64l0.49-1.84h-1.94l-0.49,1.84h-0.64l1.06-3.96h0.64l-0.43,1.59h1.94l0.43-1.59h0.64L78.55,38.88z M82.09,35.49l-0.91,3.39
		h-0.65l0.91-3.39H80.1l0.15-0.57h3.33l-0.15,0.57H82.09z M86.22,38.3l-0.06,0.46c-0.38,0.16-1.07,0.22-1.49,0.22
		c-1.27,0-1.61-0.57-1.2-2.09c0.42-1.55,1.06-2.07,2.25-2.07c1.12,0,1.47,0.44,1.25,1.29c-0.19,0.71-0.57,1.12-1.18,1.12h-1.72
		c-0.19,0.94,0.09,1.16,0.85,1.16C85.31,38.39,85.83,38.35,86.22,38.3z M84.18,36.7h1.57c0.33,0,0.48-0.29,0.55-0.59
		c0.13-0.5-0.05-0.71-0.72-0.71C84.82,35.41,84.47,35.7,84.18,36.7z M90.97,36.92c-0.41,1.53-1.01,2.06-1.95,2.06
		c-0.47,0-0.92-0.13-1.27-0.41c-0.05,0.27-0.11,0.52-0.19,0.8l-0.31,1.15h-0.64l1.5-5.6h0.52l-0.11,0.63
		c0.53-0.45,1.19-0.72,1.72-0.72C91.17,34.82,91.34,35.55,90.97,36.92z M90.3,36.92c0.3-1.12,0.17-1.5-0.41-1.5
		c-0.4,0-0.81,0.2-1.43,0.61l-0.56,2.11c0.43,0.13,0.73,0.24,1.12,0.24C89.66,38.38,89.99,38.08,90.3,36.92z M94.55,38.88h-0.64
		l0.49-1.84h-1.94l-0.49,1.84h-0.64l1.06-3.96h0.64l-0.43,1.59h1.94l0.43-1.59h0.64L94.55,38.88z M98.71,38.3l-0.06,0.46
		c-0.38,0.16-1.07,0.22-1.49,0.22c-1.27,0-1.61-0.57-1.2-2.09c0.42-1.55,1.06-2.07,2.25-2.07c1.12,0,1.47,0.44,1.25,1.29
		c-0.19,0.71-0.57,1.12-1.18,1.12h-1.72c-0.19,0.94,0.09,1.16,0.85,1.16C97.8,38.39,98.32,38.35,98.71,38.3z M96.67,36.7h1.57
		c0.33,0,0.48-0.29,0.55-0.59c0.13-0.5-0.05-0.71-0.72-0.71C97.31,35.41,96.96,35.7,96.67,36.7z M102.04,35.49l-0.91,3.39h-0.65
		l0.91-3.39h-1.34l0.15-0.57h3.33l-0.15,0.57H102.04z M107.82,38.88h-0.64l0.91-3.4h-1.9l-0.91,3.4h-0.63l1.06-3.96h3.17
		L107.82,38.88z M112.79,36.92c-0.41,1.53-1.01,2.06-1.95,2.06c-0.47,0-0.92-0.13-1.27-0.41c-0.05,0.27-0.11,0.52-0.19,0.8
		l-0.31,1.15h-0.64l1.5-5.6h0.52l-0.11,0.63c0.53-0.45,1.19-0.72,1.72-0.72C112.99,34.82,113.16,35.55,112.79,36.92z M112.12,36.92
		c0.3-1.12,0.17-1.5-0.41-1.5c-0.4,0-0.81,0.2-1.43,0.61l-0.56,2.11c0.43,0.13,0.73,0.24,1.12,0.24
		C111.48,38.38,111.81,38.08,112.12,36.92z M116.98,36.91c-0.41,1.52-1.03,2.08-2.3,2.08c-1.28,0-1.6-0.56-1.19-2.08
		c0.4-1.51,1.03-2.08,2.3-2.08C117.07,34.82,117.39,35.39,116.98,36.91z M114.17,36.91c-0.31,1.15-0.14,1.5,0.67,1.5
		c0.8,0,1.15-0.34,1.46-1.5c0.31-1.15,0.14-1.5-0.66-1.5C114.83,35.41,114.48,35.75,114.17,36.91z M120.13,36.86
		c0.68,0.06,0.81,0.41,0.64,1.05c-0.22,0.81-0.69,1.03-1.76,1.03c-0.78,0-1.18-0.01-1.7-0.05l1.06-3.96
		c0.47-0.04,0.83-0.05,1.52-0.05c1.15,0,1.5,0.22,1.27,1.06c-0.15,0.56-0.46,0.85-1.04,0.9L120.13,36.86z M119.08,38.39
		c0.68,0,0.96-0.12,1.1-0.63c0.13-0.5-0.07-0.67-0.79-0.67h-0.97l-0.35,1.29L119.08,38.39z M118.86,35.42l-0.31,1.17h0.97
		c0.64,0,0.9-0.12,1.03-0.6c0.12-0.46-0.1-0.57-0.81-0.57C119.39,35.42,119.1,35.42,118.86,35.42z M125.14,36.09l-0.75,2.79h-0.51
		l0.1-0.65c-0.36,0.31-1.04,0.72-1.72,0.72c-0.66,0-1-0.39-0.8-1.11l0.12-0.43c0.17-0.62,0.63-0.98,1.29-0.98h1.54l0.09-0.35
		c0.12-0.49,0.02-0.68-0.57-0.68c-0.39,0-1.04,0.05-1.62,0.1l0.08-0.51c0.54-0.09,1.29-0.18,1.84-0.18
		C125.04,34.82,125.4,35.13,125.14,36.09z M124.05,37.76l0.21-0.8l-1.43,0.01c-0.36,0.01-0.54,0.21-0.63,0.54l-0.07,0.25
		c-0.11,0.42,0.02,0.59,0.42,0.59C122.92,38.37,123.51,38.17,124.05,37.76z M128.09,38.88l0.7-2.63c0.05-0.17,0.1-0.33,0.17-0.53
		h-0.02c-0.1,0.15-0.26,0.33-0.38,0.46l-2.61,2.69h-0.52l1.06-3.96h0.59l-0.7,2.63c-0.05,0.18-0.1,0.33-0.17,0.53h0.02
		c0.12-0.16,0.26-0.33,0.39-0.46l2.61-2.7h0.52l-1.06,3.96H128.09z M129.69,33.16c-0.13,0.63-0.7,1.11-1.43,1.11
		c-0.74,0-1.05-0.49-0.85-1.11h0.49c-0.13,0.47,0.04,0.73,0.46,0.73c0.4,0,0.71-0.26,0.83-0.73H129.69z M132.98,40.05h-0.43
		l0.25-1.17h-2.98l-0.37,1.17h-0.42l0.46-1.72h0.43c0.57-0.79,0.94-1.63,1.22-2.5c0.2-0.6,0.59-0.91,1.19-0.91h1.52l-0.91,3.41h0.51
		L132.98,40.05z M133.09,35.47h-0.8c-0.29,0-0.48,0.16-0.59,0.48c-0.32,0.92-0.67,1.69-1.2,2.38h1.82L133.09,35.47z M137.15,38.3
		l-0.06,0.46c-0.38,0.16-1.07,0.22-1.49,0.22c-1.27,0-1.61-0.57-1.2-2.09c0.42-1.55,1.06-2.07,2.25-2.07c1.12,0,1.47,0.44,1.25,1.29
		c-0.19,0.71-0.57,1.12-1.18,1.12h-1.72c-0.19,0.94,0.09,1.16,0.85,1.16C136.24,38.39,136.76,38.35,137.15,38.3z M135.11,36.7h1.57
		c0.33,0,0.48-0.29,0.55-0.59c0.13-0.5-0.05-0.71-0.72-0.71C135.74,35.41,135.4,35.7,135.11,36.7z M141.9,36.92
		c-0.41,1.53-1.01,2.06-1.95,2.06c-0.47,0-0.92-0.13-1.27-0.41c-0.05,0.27-0.11,0.52-0.19,0.8l-0.31,1.15h-0.64l1.5-5.6h0.52
		l-0.11,0.63c0.53-0.45,1.19-0.72,1.72-0.72C142.1,34.82,142.27,35.55,141.9,36.92z M141.23,36.92c0.3-1.12,0.17-1.5-0.41-1.5
		c-0.4,0-0.81,0.2-1.43,0.61l-0.56,2.11c0.43,0.13,0.73,0.24,1.12,0.24C140.59,38.38,140.92,38.08,141.23,36.92z M21.28,17.27
		c-0.62,2.32-1.58,4.01-2.88,5.06s-3.07,1.58-5.31,1.58H5.06c-2.24,0-3.73-0.52-4.47-1.58s-0.79-2.74-0.17-5.06L3.28,6.64
		C3.9,4.32,4.86,2.63,6.16,1.58S9.23,0,11.47,0h8.02c2.24,0,3.73,0.53,4.47,1.58c0.73,1.05,0.79,2.74,0.17,5.06L21.28,17.27z
		 M18.35,6.64c0.36-1.33-0.11-1.99-1.39-1.99h-5.45c-1.28,0-2.1,0.66-2.46,1.99L6.2,17.27c-0.36,1.33,0.11,1.99,1.39,1.99h5.45
		c1.28,0,2.1-0.67,2.46-1.99L18.35,6.64z M43.55,5.98l-4.72,17.6h-5.61l3.51-13.12h-5.77l-3.51,13.12h-5.61l4.72-17.6H43.55z
		 M54.54,10.46l-3.51,13.12h-5.61l3.51-13.12h-5.29l1.2-4.48h16.2l-1.2,4.48H54.54z M73.38,5.98h5.93l-4.72,17.6h-5.61l2.58-9.63
		l-8.03,9.63H57.6l4.72-17.6h5.61l-2.58,9.63L73.38,5.98z M144.86,5.74H150l-1.26,4.7h-5.14l-1.53,5.71h-4.24l1.53-5.71h-5.14
		l1.26-4.7h5.14l1.53-5.71h4.24L144.86,5.74z"/>
</g>
</svg>
