<?xml version="1.0" encoding="utf-8"?>
<!-- Generator: Adobe Illustrator 27.9.0, SVG Export Plug-In . SVG Version: 6.00 Build 0)  -->
<svg version="1.1" id="Layer_1" xmlns="http://www.w3.org/2000/svg" xmlns:xlink="http://www.w3.org/1999/xlink" x="0px" y="0px"
	 viewBox="0 0 29 29" style="enable-background:new 0 0 29 29;" xml:space="preserve">
<style type="text/css">
	.st0{fill:#BABCBE;}
</style>
<path class="st0" d="M14.5,0C6.5,0,0,6.5,0,14.5S6.5,29,14.5,29S29,22.5,29,14.5S22.5,0,14.5,0z M16.3,27.9v-10h3.5l0.5-4.1h-4.1
	v-2.6c0-0.7,0.1-1.2,0.4-1.5c0.3-0.4,0.9-0.5,1.6-0.5h2.2V5.4c-0.9-0.1-1.9-0.1-3.2-0.1c-1.6,0-2.9,0.5-3.9,1.4
	c-1,0.9-1.5,2.3-1.5,4v3.1H8.5v4.1H12v9.9C5.8,26.6,1,21.1,1,14.5C1,7.1,7.1,1,14.5,1S28,7.1,28,14.5C28,21.3,22.9,27,16.3,27.9z"/>
</svg>
