<?xml version="1.0" encoding="utf-8"?>
<!-- Generator: Adobe Illustrator 27.9.0, SVG Export Plug-In . SVG Version: 6.00 Build 0)  -->
<svg version="1.1" id="Layer_1" xmlns="http://www.w3.org/2000/svg" xmlns:xlink="http://www.w3.org/1999/xlink" x="0px" y="0px"
	 viewBox="0 0 29 29" style="enable-background:new 0 0 29 29;" xml:space="preserve">
<style type="text/css">
	.st0{fill:#BABCBE;}
</style>
<g>
	<g>
		<g>
			<path class="st0" d="M14.5,29C6.5,29,0,22.5,0,14.5S6.5,0,14.5,0S29,6.5,29,14.5S22.5,29,14.5,29z M14.5,1C7.1,1,1,7.1,1,14.5
				S7.1,28,14.5,28S28,21.9,28,14.5S21.9,1,14.5,1z"/>
		</g>
	</g>
	<g>
		<g>
			<path class="st0" d="M22.6,11.1v8.8c0,0.4-0.1,0.7-0.4,1s-0.6,0.4-1,0.4H7.9c-0.4,0-0.7-0.1-1-0.4s-0.4-0.6-0.4-1v-8.8
				c0-0.1,0-0.2,0.1-0.2c0,0,0.2-0.1,0.4-0.3c0.2-0.2,0.3-0.3,0.4-0.3c0.1,0,0.2-0.2,0.4-0.3c0.2-0.2,0.4-0.3,0.6-0.5S8.8,9,9.2,8.7
				s0.8-0.6,1.3-1C11,7.4,11.5,7,12.2,6.5c0,0,0.2-0.1,0.5-0.4s0.5-0.4,0.6-0.5c0.1-0.1,0.3-0.2,0.6-0.3c0.2-0.1,0.5-0.2,0.6-0.2
				s0.4,0.1,0.6,0.2c0.2,0.1,0.4,0.2,0.6,0.3s0.4,0.3,0.6,0.5c0.3,0.2,0.4,0.3,0.5,0.4c0.7,0.5,1.2,0.9,1.7,1.3
				c0.5,0.4,0.9,0.7,1.3,1s0.7,0.5,0.9,0.7s0.4,0.3,0.6,0.5s0.4,0.3,0.4,0.3s0.2,0.2,0.4,0.3c0.2,0.2,0.3,0.3,0.4,0.3
				C22.6,10.9,22.6,11,22.6,11.1z M17.5,16.4c1.6-1.1,2.6-1.9,3.1-2.3c0.1,0,0.1-0.1,0.1-0.2c0-0.1,0-0.1-0.1-0.2l-0.3-0.5
				c0-0.1-0.1-0.1-0.2-0.1c-0.1,0-0.1,0-0.2,0.1c-1.4,1-2.4,1.8-3.1,2.3c0,0-0.2,0.1-0.5,0.4s-0.5,0.4-0.6,0.5
				c-0.1,0.1-0.3,0.2-0.6,0.3c-0.2,0.1-0.5,0.2-0.6,0.2s-0.4-0.1-0.6-0.2c-0.2-0.1-0.4-0.2-0.6-0.3c-0.1-0.1-0.4-0.3-0.6-0.5
				s-0.4-0.3-0.5-0.4c-1.1-0.8-2.1-1.6-3.1-2.3c-0.1,0-0.1-0.1-0.2-0.1s-0.1,0-0.2,0.1l-0.3,0.5c0,0.1-0.1,0.1-0.1,0.2
				c0,0.1,0,0.1,0.1,0.2c0.5,0.4,1.5,1.1,3.1,2.3c0.1,0,0.2,0.2,0.5,0.3s0.4,0.3,0.6,0.4s0.3,0.2,0.6,0.4c0.2,0.1,0.5,0.2,0.7,0.3
				c0.2,0.1,0.5,0.1,0.7,0.1s0.5,0,0.7-0.1c0.2-0.1,0.5-0.2,0.7-0.3c0.2-0.1,0.4-0.3,0.6-0.4c0.1-0.1,0.3-0.2,0.6-0.4
				C17.3,16.5,17.5,16.4,17.5,16.4z"/>
		</g>
	</g>
</g>
</svg>
