<?xml version="1.0" encoding="utf-8"?>
<!-- Generator: Adobe Illustrator 27.9.0, SVG Export Plug-In . SVG Version: 6.00 Build 0)  -->
<svg version="1.1" id="Layer_1" xmlns="http://www.w3.org/2000/svg" xmlns:xlink="http://www.w3.org/1999/xlink" x="0px" y="0px"
	 viewBox="0 0 29 29" style="enable-background:new 0 0 29 29;" xml:space="preserve">
<style type="text/css">
	.st0{fill:#BABCBE;}
</style>
<g>
	<g>
		<path class="st0" d="M23.1,9c0.1-0.6,0-1-0.2-1.3c-0.3-0.3-0.6-0.3-1-0.2L4.5,14.2c-0.6,0.2-1,0.4-1,0.7s0.2,0.5,0.8,0.6L8.7,17
			L19,10.5c0.2-0.1,0.4-0.2,0.6-0.1c0.1,0,0.1,0.1,0,0.3l-8.3,7.5l-0.4,4.6c0.3,0,0.6-0.1,0.9-0.4l2.2-2.1l4.5,3.3
			c0.9,0.5,1.4,0.2,1.6-0.7L23.1,9z"/>
	</g>
	<g>
		<path class="st0" d="M14.5,29C6.5,29,0,22.5,0,14.5S6.5,0,14.5,0S29,6.5,29,14.5S22.5,29,14.5,29z M14.5,1C7.1,1,1,7.1,1,14.5
			S7.1,28,14.5,28S28,21.9,28,14.5S21.9,1,14.5,1z"/>
	</g>
</g>
</svg>
