<?xml version="1.0" encoding="utf-8"?>
<!-- Generator: Adobe Illustrator 27.9.0, SVG Export Plug-In . SVG Version: 6.00 Build 0)  -->
<svg version="1.1" id="Layer_1" xmlns="http://www.w3.org/2000/svg" xmlns:xlink="http://www.w3.org/1999/xlink" x="0px" y="0px"
	 viewBox="0 0 29 29" style="enable-background:new 0 0 29 29;" xml:space="preserve">
<style type="text/css">
	.st0{fill:#BABCBE;}
</style>
<g>
	<g>
		<g>
			<path class="st0" d="M23.9,9.8c0.2,0.6,0.3,1.6,0.4,2.9l0,1.8l0,1.8c-0.1,1.3-0.2,2.3-0.4,3c-0.1,0.4-0.3,0.8-0.6,1.1
				c-0.3,0.3-0.7,0.5-1.1,0.6c-0.6,0.2-2.1,0.3-4.4,0.4l-3.2,0l-3.2,0C9,21.3,7.5,21.1,6.9,21c-0.4-0.1-0.8-0.3-1.1-0.6
				c-0.3-0.3-0.5-0.7-0.6-1.1c-0.2-0.6-0.3-1.6-0.4-3l0-1.8c0-0.5,0-1.1,0-1.8c0.1-1.3,0.2-2.3,0.4-2.9C5.3,9.4,5.5,9,5.8,8.7
				C6.1,8.4,6.5,8.2,6.9,8C7.5,7.9,9,7.7,11.2,7.7l3.2,0l3.2,0C20,7.7,21.5,7.9,22.1,8c0.4,0.1,0.8,0.3,1.1,0.6
				C23.5,9,23.8,9.4,23.9,9.8z M12.5,17.4l5.1-2.9l-5.1-2.9V17.4z"/>
		</g>
	</g>
	<g>
		<path class="st0" d="M14.5,29C6.5,29,0,22.5,0,14.5S6.5,0,14.5,0S29,6.5,29,14.5S22.5,29,14.5,29z M14.5,1C7.1,1,1,7.1,1,14.5
			S7.1,28,14.5,28S28,21.9,28,14.5S21.9,1,14.5,1z"/>
	</g>
</g>
</svg>
