<?xml version="1.0" encoding="utf-8"?>
<!-- Generator: Adobe Illustrator 27.9.0, SVG Export Plug-In . SVG Version: 6.00 Build 0)  -->
<svg version="1.1" id="Layer_1" xmlns="http://www.w3.org/2000/svg" xmlns:xlink="http://www.w3.org/1999/xlink" x="0px" y="0px"
	 viewBox="0 0 188.74 83.19" style="enable-background:new 0 0 188.74 83.19;" xml:space="preserve">
<style type="text/css">
	.st0{fill:#2E6CA9;}
	.st1{fill:#A5A7A9;}
	.st2{fill:#EBBB50;}
</style>
<g>
	<path class="st0" d="M69.32,27.97c1.8-1.23,3.66-2.2,5.55-3.1c3.38-1.6,6.86-2.9,10.45-3.78c3.09-0.76,6.21-1.29,9.37-1.5
		c3.49-0.24,6.96-0.09,10.43,0.36c6.81,0.9,13.29,2.98,19.35,6.59c0.65,0.38,1.25,0.84,1.88,1.27c0.14,0.1,0.36,0.15,0.34,0.38
		c-0.02,0.23-0.25,0.23-0.4,0.27c-1.5,0.49-3.03,0.89-4.56,1.23c-2.36,0.52-4.77,0.64-7.13,1.1c-0.92,0.18-1.81,0.48-2.65,0.94
		c-1.74,0.96-2.45,2.69-2.65,4.69c-0.33,3.31,0.14,6.57,0.77,9.8c0.45,2.31,1.14,4.53,1.98,6.75c-0.35,0.1-0.52-0.11-0.72-0.23
		c-2.89-1.73-5.9-2.96-9.27-2.59c-2.19,0.24-4.02,1.31-5.52,3.09c-3.46,4.13-6.38,8.74-9.38,13.27c-2.22,3.34-4.81,6.31-7.62,9.05
		c-0.11,0.1-0.23,0.18-0.48,0.37c0.2-0.97,0.7-1.6,1.06-2.3c2.95-5.68,5.78-11.44,8.31-17.37c1.71-4,3.37-8.04,4.23-12.4
		c0.56-2.82,1.15-5.63,1.09-8.55c-0.04-2.16-0.57-4.09-2.26-5.4c-1.13-0.88-2.42-1.32-3.76-1.51c-4.88-0.69-9.78-0.72-14.69-0.43
		C71.84,28.03,70.62,27.97,69.32,27.97z"/>
	<g>
		<path class="st1" d="M0.65,49.36c1.07-4.71,3.26-8.77,6.88-11.66c3.12-2.49,6.57-3.4,10.3-1.88c2.29,0.93,3.7,2.81,4.19,5.46
			c0.85,4.59-1,8.37-4.88,10.24c-3.32,1.6-6.83,1.88-10.37,2.04c-0.42,0.02-0.84,0-1.25,0c-1,0-1.08,0.03-1.06,1.12
			c0.03,2.1,0.12,4.19,1.21,6.05c1.08,1.85,2.64,2.82,4.58,2.98c2.56,0.2,4.98-0.4,7.23-1.77c0.49-0.3,0.72-0.32,0.81,0.38
			c0.12,0.94,0.28,1.88,0.46,2.81c0.09,0.47-0.15,0.62-0.45,0.8c-2.36,1.42-4.9,2.02-7.56,2.15c-2.25,0.11-4.39-0.28-6.34-1.63
			c-1.67-1.16-2.73-2.84-3.5-4.81C0.75,61.25-0.88,56.11,0.65,49.36z M7.63,49.38c1.67-0.08,3.33-0.27,4.97-0.67
			c1.54-0.38,3.05-0.88,4.18-2.23c1.72-2.06,1.38-5.99-1.45-6.84c-1.71-0.51-3.33-0.26-4.81,0.74c-2.88,1.96-4.39,5.02-5.32,8.5
			c-0.13,0.48,0.16,0.49,0.45,0.49C6.3,49.38,6.97,49.38,7.63,49.38z"/>
		<path class="st1" d="M122.22,42.66c1.01-1.27,1.91-2.55,3.07-3.57c2.32-2.04,4.87-3.22,7.9-2.57c2.14,0.46,3.71,1.8,4.77,3.86
			c1.38,2.69,1.75,5.64,1.59,8.68c-0.18,3.32-0.81,6.52-2.12,9.53c-2.1,4.84-5.05,8.72-9.88,10.27c-2.78,0.89-5.58,0.73-8.26-0.64
			c-0.45-0.23-0.65-0.26-0.75,0.43c-0.57,4-1.21,8-1.8,12c-0.11,0.72-0.35,1-1.04,0.94c-0.98-0.08-1.96-0.04-2.95-0.01
			c-0.44,0.01-0.61-0.08-0.52-0.64c0.79-4.88,1.57-9.75,2.33-14.64c0.69-4.43,1.33-8.86,2.05-13.28c0.59-3.62,1.1-7.25,1.58-10.88
			c0.19-1.48,0.39-2.96,0.54-4.45c0.05-0.49,0.19-0.64,0.64-0.62c0.98,0.04,1.97,0.04,2.95,0c0.49-0.02,0.58,0.19,0.5,0.68
			c-0.19,1.29-0.35,2.58-0.51,3.88C122.26,41.96,122.24,42.31,122.22,42.66z M134.97,48.25c-0.01-1.13-0.18-2.22-0.44-3.31
			c-0.81-3.53-4.04-5.11-6.94-3.4c-1.19,0.7-2.17,1.69-3.01,2.83c-1.86,2.55-2.97,5.51-3.54,8.7c-0.55,3.07-0.92,6.18-1.44,9.26
			c-0.15,0.86,0.06,1.33,0.72,1.7c3.51,1.95,7,1.34,9.84-2C133.43,58.18,134.77,53.45,134.97,48.25z"/>
		<path class="st1" d="M39.76,60.84c-0.46,0.84-0.89,1.68-1.37,2.48c-1.49,2.48-3.31,4.52-5.92,5.51
			c-4.65,1.78-9.12-1.02-10.18-6.36c-0.78-3.92-0.29-7.74,0.81-11.5c0.84-2.85,2.12-5.43,3.87-7.72c2.82-3.7,6.36-6,10.69-6.71
			c3.08-0.5,6.11-0.11,9.1,0.78c0.53,0.16,0.65,0.42,0.55,0.99c-0.89,5.3-1.78,10.6-2.62,15.92c-0.7,4.46-1.16,8.95-1.11,13.49
			c0.01,0.77-0.2,0.99-0.87,0.94c-0.88-0.06-1.76-0.06-2.64,0c-0.61,0.04-0.76-0.22-0.73-0.85c0.11-2.15,0.28-4.29,0.51-6.43
			C39.89,61.23,39.95,61.06,39.76,60.84z M26.65,57.75c-0.02,1.61,0.12,3.17,0.77,4.63c0.51,1.14,1.28,1.98,2.42,2.33
			c2.13,0.65,3.85-0.28,5.39-1.79c2.32-2.29,3.76-5.21,4.68-8.46c1.19-4.2,1.55-8.59,2.33-12.88c0.1-0.56-0.26-0.57-0.55-0.64
			c-3.82-0.91-7.1,0.3-9.85,3.27C28.41,47.89,26.85,52.51,26.65,57.75z"/>
		<path class="st1" d="M140.09,58.46c0.35-7.46,2.64-13.9,8.13-18.57c3.41-2.89,7.34-3.88,11.58-3.48c1.54,0.14,3.06,0.47,4.56,0.9
			c0.52,0.15,0.68,0.4,0.59,0.97c-0.45,2.7-0.87,5.41-1.31,8.12c-1.17,7.15-2.45,14.28-2.36,21.6c0.01,0.49-0.13,0.68-0.59,0.66
			c-0.98-0.03-1.96-0.03-2.94,0.01c-0.55,0.02-0.66-0.25-0.62-0.79c0.16-1.87,0.29-3.75,0.43-5.62c0.02-0.22,0.04-0.43,0.05-0.65
			c0.01-0.16,0.06-0.36-0.1-0.43c-0.23-0.09-0.29,0.15-0.36,0.31c-0.59,1.33-1.32,2.55-2.18,3.68c-2.11,2.78-4.7,4.43-8.08,4.13
			c-2.8-0.26-4.62-2.05-5.78-4.77C140.29,62.62,140.04,60.57,140.09,58.46z M157.42,40.63c-3.56,0.04-6.12,1.66-8.24,4.24
			c-2.03,2.47-3.31,5.39-3.99,8.62c-0.54,2.57-0.73,5.16-0.12,7.76c0.6,2.53,2.4,3.96,4.64,3.61c1.18-0.18,2.19-0.81,3.07-1.66
			c2.89-2.76,4.4-6.41,5.3-10.42c0.81-3.62,1.18-7.34,1.84-11c0.1-0.55-0.06-0.77-0.5-0.84C158.66,40.82,157.89,40.59,157.42,40.63z
			"/>
		<path class="st1" d="M75.16,62.18c0.57-1.54,1.08-2.97,1.62-4.38c1.9-4.98,3.8-9.96,5.71-14.94c0.64-1.67,1.3-3.34,1.92-5.03
			c0.2-0.55,0.45-0.81,1.02-0.78c1.15,0.06,2.31,0.03,3.46,0.01c0.44-0.01,0.7-0.02,0.43,0.64c-1.48,3.49-2.92,7.01-4.37,10.51
			c-1.27,3.06-2.51,6.14-3.79,9.2c-2.23,5.33-4.34,10.73-7.35,15.6c-1.98,3.21-4.23,6.14-7.24,8.24c-1.11,0.77-2.33,1.26-3.5,1.87
			c-0.31,0.16-0.32-0.11-0.34-0.21c-0.36-1.38-0.72-2.76-1.02-4.16c-0.1-0.45,0.36-0.46,0.6-0.58c1.96-0.93,3.75-2.14,5.26-3.83
			c1.57-1.78,2.93-3.73,3.94-5.96c0.28-0.61,0.34-1.22,0.22-1.9c-1.36-7.53-2.7-15.06-4.04-22.59c-0.37-2.05-0.73-4.11-1.13-6.16
			c-0.1-0.52,0-0.68,0.48-0.67c1.15,0.03,2.31,0.04,3.46-0.01c0.53-0.02,0.74,0.18,0.82,0.75c0.42,2.85,0.85,5.7,1.3,8.54
			c0.54,3.43,1.11,6.86,1.64,10.29c0.22,1.4,0.38,2.8,0.56,4.2C74.88,61.26,74.91,61.68,75.16,62.18z"/>
		<path class="st1" d="M168.68,37.07c0.57,0,1.13,0.03,1.69-0.01c0.44-0.03,0.59,0.18,0.66,0.64c0.6,4.11,1.2,8.22,1.84,12.33
			c0.59,3.78,1.2,7.56,1.7,11.36c0.02,0.19,0.02,0.47,0.22,0.45c0.3-0.02,0.32-0.39,0.39-0.63c0.9-2.82,2.01-5.55,3.04-8.31
			c1.89-5.1,3.8-10.19,5.7-15.28c0.13-0.35,0.28-0.58,0.69-0.57c1.23,0.03,2.46,0.03,3.68,0.01c0.48-0.01,0.54,0.12,0.34,0.6
			c-1.25,3.05-2.47,6.1-3.7,9.16c-1.92,4.76-3.79,9.55-5.76,14.29c-2.03,4.89-4.1,9.77-7.08,14.09c-2.41,3.5-5.27,6.35-9.05,7.93
			c-0.26,0.11-0.36,0.1-0.43-0.16c-0.33-1.37-0.65-2.74-0.96-4.11c-0.07-0.32,0.1-0.48,0.37-0.6c4.18-1.84,6.97-5.3,9.07-9.57
			c0.36-0.73,0.48-1.43,0.33-2.26c-1.19-6.7-2.35-13.42-3.52-20.13c-0.48-2.78-0.96-5.56-1.48-8.33c-0.13-0.71-0.03-1.01,0.69-0.91
			C167.64,37.12,168.16,37.07,168.68,37.07z"/>
		<path class="st1" d="M52.23,69.28c-1.13-0.02-3.06-0.48-4.88-1.57c-0.59-0.35-0.8-0.75-0.51-1.48c0.31-0.79,0.52-1.64,0.79-2.46
			c0.13-0.39,0.25-0.62,0.73-0.31c1.46,0.94,3.05,1.5,4.74,1.63c2.57,0.19,4.83-1.21,5.42-4.13c0.46-2.26-0.51-4.59-2.48-6
			c-1.29-0.93-2.62-1.8-3.71-3.05c-3.06-3.48-2.68-8.54-0.35-11.7c2.37-3.22,5.55-4.19,9.16-3.79c1.15,0.13,2.27,0.44,3.34,0.94
			c0.58,0.27,0.93,0.6,0.57,1.41c-0.35,0.8-0.59,1.68-0.8,2.54c-0.15,0.63-0.39,0.62-0.83,0.36c-1.45-0.85-2.99-1.17-4.62-1.04
			c-2.01,0.16-3.67,1.74-4.02,3.89c-0.25,1.55,0.16,2.89,1.12,4.05c1.05,1.27,2.47,1.96,3.67,2.99c1.59,1.36,2.87,2.95,3.47,5.14
			c1.19,4.39-1.03,9.67-4.82,11.44C56.45,68.96,55.03,69.28,52.23,69.28z"/>
	</g>
	<ellipse class="st2" cx="98.75" cy="8.15" rx="7.34" ry="8.15"/>
</g>
</svg>
