<?xml version="1.0" encoding="utf-8"?>
<!-- Generator: Adobe Illustrator 27.9.0, SVG Export Plug-In . SVG Version: 6.00 Build 0)  -->
<svg version="1.1" id="Layer_1" xmlns="http://www.w3.org/2000/svg" xmlns:xlink="http://www.w3.org/1999/xlink" x="0px" y="0px"
	 viewBox="0 0 280.85 47.26" style="enable-background:new 0 0 280.85 47.26;" xml:space="preserve">
<style type="text/css">
	.st0{fill:#358A47;}
	.st1{fill:#070909;}
</style>
<g>
	<path class="st0" d="M53.24,40.79h-6.92V16.31h24.92v24.47h-6.92V21.07H53.24V40.79z"/>
	<path class="st0" d="M80.68,31.87c0-4.96,3.06-5.94,4.99-5.94c1.89,0,4.95,0.98,4.95,5.94c0,3.08-1.3,6.02-4.95,6.02
		C81.94,37.89,80.68,34.95,80.68,31.87z M74.59,23.02v24.23h6.38v-8.29c2.14,2.31,5.62,2.48,6.46,2.48c6.08,0,9.82-3.88,9.82-9.51
		c0-5.87-3.69-9.58-9.69-9.58c-1.51,0-4.45,0.25-6.88,2.8h-0.13l0.04-2.13H74.59z"/>
	<path class="st0" d="M113.07,38.66c-2.35,2.2-4.61,2.8-7.13,2.8c-6.88,0-7.13-5.17-7.13-7.31V23.02h6.38V33.3
		c0,3.53,1.22,4.58,3.57,4.58c4.03,0,4.32-3.6,4.32-4.9v-9.97h6.38v17.76h-6.38V38.66z"/>
	<path class="st0" d="M128.59,26.59h3.44c1.8,0,3.36,0.28,3.36,1.75c0,1.61-2.43,1.64-3.48,1.64h-3.31V26.59z M122.21,23.02v17.76
		h12.67c4.62,0,7.8-0.91,7.8-4.55c0-2.8-1.55-4.02-5.08-4.65v-0.11c2.31-0.31,4.32-1.75,4.32-4.16c0-4.3-5.04-4.3-7.01-4.3H122.21z
		 M128.59,33.3h3.9c3.02,0,3.65,0.91,3.65,2.1c0,0.77-0.42,1.82-3.57,1.82h-3.98V33.3z"/>
	<path class="st0" d="M158.13,33.44c0,3.57-3.1,4.44-4.66,4.44c-1.18,0-3.27-0.39-3.27-2.06c0-1.99,2.39-2.38,3.73-2.55
		c2.48-0.35,2.27-0.24,4.2-0.94V33.44z M150.74,28.76c0-2.62,2.77-2.83,3.9-2.83c0.71,0,3.36,0.04,3.44,2.34c0,0.17,0,0.31,0,0.49
		c-0.13,1.75-1.8,1.4-6.5,1.99c-3.86,0.52-7.93,1.5-7.93,5.56c0,1.47,0.63,5.14,7.43,5.14c2.6,0,5.46-0.66,7.13-2.41h0.13l0.54,1.75
		h6.71v-0.31c-1.22-0.25-1.3-1.43-1.26-3.36l0.13-8.11c0.04-2.06-0.17-6.64-9.78-6.64c-2.31,0-9.73,0.21-10.03,6.4H150.74z"/>
	<path class="st0" d="M165.18,26.59v-3.57h20.48v3.57h-7.05v14.19h-6.38V26.59H165.18z"/>
	<path class="st0" d="M193.79,30.16h5.75c1.68,0,5.04,0.18,5.04,3.11c0,2.31-2.43,2.76-5.16,2.76h-5.62V30.16z M193.79,21.07h15.9
		v-4.75h-22.82v24.47h14.01c6.8,0,11.16-2.38,11.16-7.38c0-7.83-8.73-8.01-11.16-8.01h-7.09V21.07z"/>
	<path class="st0" d="M227.73,33.44c0,3.57-3.1,4.44-4.66,4.44c-1.18,0-3.27-0.39-3.27-2.06c0-1.99,2.39-2.38,3.73-2.55
		c2.48-0.35,2.27-0.24,4.2-0.94V33.44z M220.35,28.76c0-2.62,2.77-2.83,3.9-2.83c0.72,0,3.36,0.04,3.44,2.34c0,0.17,0,0.31,0,0.49
		c-0.13,1.75-1.8,1.4-6.51,1.99c-3.86,0.52-7.93,1.5-7.93,5.56c0,1.47,0.63,5.14,7.42,5.14c2.6,0,5.46-0.66,7.13-2.41h0.12
		l0.55,1.75h6.71v-0.31c-1.21-0.25-1.3-1.43-1.26-3.36l0.12-8.11c0.04-2.06-0.17-6.64-9.78-6.64c-2.31,0-9.73,0.21-10.03,6.4H220.35
		z"/>
	<path class="st0" d="M243.17,40.79h-6.38V23.02h6.38v6.68h7.68v-6.68h6.38v17.76h-6.38v-7.52h-7.68V40.79z"/>
	<path class="st0" d="M273.34,23.02h7.09l-8.77,8.32l9.19,9.44h-7.47l-6.88-7.76h-0.12v7.76H260V23.02h6.38v7.13h0.12L273.34,23.02z
		"/>
	<g>
		<rect y="24.88" class="st1" width="15.97" height="15.97"/>
		<path class="st0" d="M0.02,0v19.88h4.22c11.12,0,16.75,5.64,16.75,16.75v4.22h19.88V0H0.02z M32.43,8.45c0,5.43,0,18.53,0,23.96
			c-1.52,0-1.78,0-3.26,0c-1.41-11.85-8.85-19.3-20.71-20.7c0-1.47,0-1.74,0-3.26C13.9,8.45,27,8.45,32.43,8.45z"/>
	</g>
</g>
</svg>
