<?xml version="1.0" encoding="utf-8"?>
<!-- Generator: Adobe Illustrator 27.9.0, SVG Export Plug-In . SVG Version: 6.00 Build 0)  -->
<svg version="1.1" id="Layer_1" xmlns="http://www.w3.org/2000/svg" xmlns:xlink="http://www.w3.org/1999/xlink" x="0px" y="0px"
	 viewBox="0 0 100 100" style="enable-background:new 0 0 100 100;" xml:space="preserve">
<style type="text/css">
	.st0{fill:url(#SVGID_1_);}
	.st1{fill:#358A47;}
	.st2{fill:#FFFFFF;}
</style>
<g>
	
		<linearGradient id="SVGID_1_" gradientUnits="userSpaceOnUse" x1="0.3183" y1="-627" x2="99.6817" y2="-627" gradientTransform="matrix(1 0 0 -1 0 -577)">
		<stop  offset="0" style="stop-color:#343434"/>
		<stop  offset="1" style="stop-color:#070909"/>
	</linearGradient>
	<path class="st0" d="M50,0.32L50,0.32c27.43,0,49.68,22.25,49.68,49.68l0,0c0,27.43-22.25,49.68-49.68,49.68l0,0
		C22.57,99.68,0.32,77.43,0.32,50l0,0C0.32,22.57,22.57,0.32,50,0.32z"/>
	<path class="st1" d="M50,0C22.41,0,0,22.37,0,50s22.37,50,50,50s50-22.37,50-50S77.63,0,50,0z M50,94.49
		C25.43,94.49,5.51,74.57,5.51,50S25.43,5.51,50,5.51S94.49,25.43,94.49,50S74.57,94.49,50,94.49z"/>
	<path class="st2" d="M67.47,38.64L56.33,55.16h11.14V38.64z M71.67,31.95v23.23h4.9v4.2h-4.9v8.69h-4.23v-8.69H51.69v-4.52
		l15.88-22.88L71.67,31.95L71.67,31.95z M47.04,63.84v4.2H23.42v-0.13c0.22-3.95,1.24-6.84,3.21-9.23c1.59-1.97,3.53-3.44,7.51-5.92
		c0,0,1.4-0.89,1.81-1.15c2.13-1.37,3.5-2.45,4.61-3.69c1.37-1.59,2.07-3.31,2.07-5.35c0-3.95-2.8-6.65-6.81-6.65
		c-4.68,0-7.07,3.56-7.19,8.88v0.1h-4.2v-0.1l-0.03-0.95c0-7.13,4.65-11.9,11.65-11.9c6.84,0,11.3,4.14,11.3,10.53
		c0,3.28-1.18,5.92-3.44,8.24c-1.69,1.78-3.44,2.96-7.35,5.35c-0.06,0.03-0.1,0.06-0.16,0.1c-0.19,0.1-1.05,0.6-1.27,0.76
		c-1.88,1.11-3.02,1.91-4.04,2.86c-1.24,1.18-2.07,2.48-2.45,4.01h18.4V63.84z"/>
</g>
</svg>
