<?xml version="1.0" encoding="utf-8"?>
<!-- Generator: Adobe Illustrator 27.9.0, SVG Export Plug-In . SVG Version: 6.00 Build 0)  -->
<svg version="1.1" id="Layer_1" xmlns="http://www.w3.org/2000/svg" xmlns:xlink="http://www.w3.org/1999/xlink" x="0px" y="0px"
	 viewBox="0 0 30 30" style="enable-background:new 0 0 30 30;" xml:space="preserve">
<style type="text/css">
	.st0{fill:none;}
</style>
<path class="st0" d="M27.95,29.79h-1c0-6.24-5.08-11.32-11.32-11.32S4.31,23.55,4.31,29.79h-1c0-6.79,5.53-12.32,12.32-12.32
	S27.95,22.99,27.95,29.79z M23.33,7.92c0-4.25-3.46-7.71-7.71-7.71S7.92,3.67,7.92,7.92c0,4.25,3.46,7.71,7.71,7.71
	S23.33,12.17,23.33,7.92z M22.33,7.92c0,3.7-3.01,6.71-6.71,6.71s-6.71-3.01-6.71-6.71s3.01-6.71,6.71-6.71S22.33,4.22,22.33,7.92z"
	/>
</svg>
