<?xml version="1.0" encoding="utf-8"?>
<!-- Generator: Adobe Illustrator 27.9.0, SVG Export Plug-In . SVG Version: 6.00 Build 0)  -->
<svg version="1.1" id="Layer_1" xmlns="http://www.w3.org/2000/svg" xmlns:xlink="http://www.w3.org/1999/xlink" x="0px" y="0px"
	 viewBox="0 0 30 30" style="enable-background:new 0 0 30 30;" xml:space="preserve">
<style type="text/css">
	.st0{fill:#FFFFFF;}
</style>
<path class="st0" d="M26.24,25.54l-6.16-6.16c1.49-1.66,2.41-3.85,2.41-6.25c0-5.17-4.2-9.37-9.37-9.37s-9.37,4.2-9.37,9.37
	s4.2,9.37,9.37,9.37c2.4,0,4.59-0.92,6.25-2.41l6.16,6.16L26.24,25.54z M4.76,13.13c0-4.62,3.75-8.37,8.37-8.37
	c4.62,0,8.37,3.75,8.37,8.37c0,4.62-3.75,8.37-8.37,8.37C8.51,21.5,4.76,17.74,4.76,13.13z"/>
</svg>
